<svg width="64" height="64" viewBox="0 0 64 64" fill="none" xmlns="http://www.w3.org/2000/svg" xmlns:xlink="http://www.w3.org/1999/xlink">
    <title>TechNick Services Budget App Favicon</title>
    <circle cx="32" cy="32" r="32" fill="#0D253F"/>
    <defs>
        <!-- Piggy Bank Icon Path -->
        <path id="piggy-bank" d="M49.9,19.3c-2.3-2.1-5.3-3.3-8.5-3.3H32c-0.8,0-1.6,0.2-2.3,0.5C27.5,13,22.7,11,17.5,11C9.5,11,3,17.5,3,25.5 C3,33.5,9.5,40,17.5,40c0.2,0,0.5,0,0.7,0c0,0,0.1,0,0.1,0c0.1,0,0.2,0,0.3,0c0.1,0,0.2,0,0.3-0.1c3.5,3.3,8,5.1,12.8,5.1 c0.1,0,0.2,0,0.2,0h10.3c3.8,0,7.3-1.5,9.9-4.1c2.6-2.6,4.1-6.1,4.1-9.9C54,25.4,52.5,21.9,49.9,19.3z M32.9,34.9 c-0.1-0.1-0.2-0.2-0.2-0.3c-1-1.4-1.6-3-1.6-4.7c0-2.3,1-4.4,2.7-5.8c0.1-0.1,0.2-0.2,0.3-0.3c0.7-0.6,1.2-1.4,1.4-2.3 c0.3-1.1-0.1-2.2-0.8-3c-0.2-0.2-0.4-0.4-0.6-0.6c-0.1-0.1-0.1-0.1-0.1-0.2c-0.5-0.5-1.2-0.8-2-0.8h-1.5c-1.7,0-3.1,1.4-3.1,3.1 v1.5c0,1.7-1.4,3.1-3.1,3.1s-3.1-1.4-3.1-3.1v-1.5c0-4.1,3.3-7.4,7.4-7.4h1.5c1.9,0,3.7,0.8,5,2.1c1.3,1.3,2,3,2,4.8 c-0.2,1.8-1.1,3.4-2.5,4.5c-0.1,0.1-0.2,0.2-0.2,0.3c0.6,0.8,0.9,1.7,0.9,2.7c0,1.4-0.6,2.7-1.5,3.6C34,35.4,33.4,35.4,32.9,34.9z"/>
        <!-- Dollar Sign Icon Path -->
        <path id="dollar-sign" d="M22,17.1c-0.5,0-0.9,0.3-1.1,0.7c-0.2,0.4-0.2,0.9,0.1,1.3c0.9,1.2,1.4,2.7,1.4,4.2c0,1.7-0.7,3.3-1.9,4.4 c-0.4,0.4-0.5,1-0.1,1.4c0.2,0.2,0.5,0.4,0.8,0.4c0.2,0,0.5-0.1,0.6-0.2c1.7-1.5,2.7-3.6,2.7-5.9c0-1.9-0.8-3.7-2.1-5 C22.6,17.2,22.3,17.1,22,17.1z M17,21.1c-0.6,0-1.1,0.5-1.1,1.1v4.6c0,0.6,0.5,1.1,1.1,1.1s1.1-0.5,1.1-1.1v-4.6 C18.1,21.6,17.6,21.1,17,21.1z M17,32.1c0.5,0,0.9-0.3,1.1-0.7c0.2-0.4,0.2-0.9-0.1-1.3c-0.9-1.2-1.4-2.7-1.4-4.2 c0-1.7,0.7-3.3,1.9-4.4c0.4-0.4,0.5-1,0.1-1.4c-0.4-0.4-1-0.5-1.4-0.1c-1.7,1.5-2.7,3.6-2.7,5.9c0,1.9,0.8,3.7,2.1,5 C16.4,32,16.7,32.1,17,32.1z M22,21.1c-0.6,0-1.1,0.5-1.1,1.1v4.6c0,0.6,0.5,1.1,1.1,1.1s1.1-0.5,1.1-1.1v-4.6 C23.1,21.6,22.6,21.1,22,21.1z"/>
    </defs>
    <!-- Use the defined paths -->
    <use xlink:href="#piggy-bank" fill="white" transform="translate(4, 12) scale(0.9)"/>
    <use xlink:href="#dollar-sign" fill="#2ECC71" transform="translate(19, 21) scale(1)"/>
</svg>